<?xml version="1.0" encoding="iso-8859-1"?>
<!-- Generator: Adobe Illustrator 16.0.0, SVG Export Plug-In . SVG Version: 6.00 Build 0)  -->
<!DOCTYPE svg PUBLIC "-//W3C//DTD SVG 1.1//EN" "http://www.w3.org/Graphics/SVG/1.1/DTD/svg11.dtd">
<svg version="1.1" id="Capa_1" xmlns="http://www.w3.org/2000/svg" xmlns:xlink="http://www.w3.org/1999/xlink" x="0px" y="0px"
	 width="45.968px" height="45.968px" viewBox="0 0 45.968 45.968" style="enable-background:new 0 0 45.968 45.968;"
	 xml:space="preserve">
<g>
	<g>
		<path d="M44.887,10.992c-1.108-0.732-2.603-0.425-3.33,0.683c-1.736,2.631-4.229,3.869-6.704,4.869h-0.002
			c2.439,3,2.14,8.199-0.928,11.267c-0.052,0.051-1.104,1.101-2.487,2.477c1.027-0.073,2.096-0.217,3.179-0.461
			c3.148-0.713,6.408-2.269,9.085-5.335c0.872-1,0.77-2.521-0.231-3.394c-0.013-0.009-0.023-0.015-0.036-0.024
			c0.561-0.555,1.097-1.166,1.603-1.842c0.796-1.063,0.58-2.57-0.482-3.366c-0.027-0.021-0.06-0.033-0.087-0.052
			c0.386-0.464,0.756-0.958,1.105-1.489C46.302,13.215,45.995,11.723,44.887,10.992z"/>
		<path d="M9.478,21.624c0-1.85,0.578-3.606,1.636-5.079c-2.476-0.786-4.968-2.238-6.703-4.869c-0.729-1.108-2.222-1.416-3.33-0.684
			c-1.108,0.731-1.415,2.223-0.684,3.332c0.351,0.531,0.721,1.025,1.105,1.489c-0.027,0.019-0.059,0.031-0.086,0.052
			c-1.063,0.796-1.279,2.303-0.483,3.366c0.506,0.676,1.042,1.287,1.603,1.842c-0.013,0.009-0.024,0.015-0.036,0.024
			C1.499,21.97,1.396,23.49,2.268,24.49c2.677,3.067,5.937,4.623,9.085,5.336c1.083,0.244,2.151,0.388,3.18,0.461
			c-1.386-1.38-2.442-2.432-2.493-2.482C10.387,26.154,9.478,23.959,9.478,21.624z"/>
		<path d="M32.483,16.857c-1.316-1.316-3.042-1.974-4.769-1.974c-1.717,0-3.435,0.652-4.748,1.956
			c-1.314-1.304-3.031-1.956-4.749-1.956c-1.726,0-3.45,0.658-4.767,1.974c-2.633,2.632-2.633,6.902,0,9.535
			c0.128,0.128,6.376,6.346,8.677,8.636c0.231,0.231,0.535,0.347,0.839,0.347c0.304,0,0.607-0.115,0.839-0.347
			c2.301-2.29,8.549-8.507,8.677-8.636C35.115,23.758,35.115,19.489,32.483,16.857z"/>
	</g>
</g>
<g>
</g>
<g>
</g>
<g>
</g>
<g>
</g>
<g>
</g>
<g>
</g>
<g>
</g>
<g>
</g>
<g>
</g>
<g>
</g>
<g>
</g>
<g>
</g>
<g>
</g>
<g>
</g>
<g>
</g>
</svg>
