<?xml version="1.0" encoding="iso-8859-1"?>
<!-- Generator: Adobe Illustrator 16.0.0, SVG Export Plug-In . SVG Version: 6.00 Build 0)  -->
<!DOCTYPE svg PUBLIC "-//W3C//DTD SVG 1.1//EN" "http://www.w3.org/Graphics/SVG/1.1/DTD/svg11.dtd">
<svg version="1.1" id="Capa_1" xmlns="http://www.w3.org/2000/svg" xmlns:xlink="http://www.w3.org/1999/xlink" x="0px" y="0px"
	 width="31.514px" height="31.514px" viewBox="0 0 31.514 31.514" style="enable-background:new 0 0 31.514 31.514;"
	 xml:space="preserve">
<g>
	<g>
		<path d="M27.55,14.695c-0.428,0-0.833,0.085-1.22,0.211c-0.434-3.391-3.409-6.016-7.023-6.016c-0.884,0-1.726,0.164-2.507,0.451
			v13.28h10.75c2.188,0,3.964-1.774,3.964-3.964C31.514,16.47,29.738,14.695,27.55,14.695z"/>
		<path d="M15.348,9.521c-0.515,0-0.931,0.417-0.931,0.931v11.171c0,0.514,0.416,0.931,0.931,0.931c0.515,0,0.932-0.417,0.932-0.931
			V10.452C16.277,9.938,15.862,9.521,15.348,9.521z"/>
		<path d="M12.945,11.02c-0.515,0-0.932,0.417-0.932,0.931v9.674c0,0.514,0.417,0.931,0.932,0.931c0.514,0,0.93-0.417,0.93-0.931
			V11.95C13.875,11.437,13.459,11.02,12.945,11.02z"/>
		<path d="M10.542,10.396c-0.515,0-0.931,0.417-0.931,0.931v10.297c0,0.514,0.416,0.931,0.931,0.931
			c0.515,0,0.931-0.417,0.931-0.931V11.326C11.473,10.812,11.057,10.396,10.542,10.396z"/>
		<path d="M8.139,11.768c-0.515,0-0.931,0.417-0.931,0.931v8.925c0,0.514,0.416,0.931,0.931,0.931c0.515,0,0.931-0.417,0.931-0.931
			v-8.925C9.07,12.185,8.653,11.768,8.139,11.768z"/>
		<path d="M5.736,15.108c-0.514,0-0.931,0.416-0.931,0.931v5.585c0,0.514,0.417,0.931,0.931,0.931c0.515,0,0.931-0.417,0.931-0.931
			v-5.585C6.667,15.524,6.251,15.108,5.736,15.108z"/>
		<path d="M3.334,15.108c-0.515,0-0.931,0.416-0.931,0.931v5.585c0,0.514,0.416,0.931,0.931,0.931c0.514,0,0.931-0.417,0.931-0.931
			v-5.585C4.265,15.524,3.848,15.108,3.334,15.108z"/>
		<path d="M0.931,16.45C0.416,16.45,0,16.866,0,17.38v4.244c0,0.514,0.416,0.931,0.931,0.931c0.515,0,0.931-0.417,0.931-0.931V17.38
			C1.861,16.866,1.445,16.45,0.931,16.45z"/>
	</g>
</g>
<g>
</g>
<g>
</g>
<g>
</g>
<g>
</g>
<g>
</g>
<g>
</g>
<g>
</g>
<g>
</g>
<g>
</g>
<g>
</g>
<g>
</g>
<g>
</g>
<g>
</g>
<g>
</g>
<g>
</g>
</svg>
